<svg width="17" height="17" viewBox="0 0 17 17" fill="none" xmlns="http://www.w3.org/2000/svg">
<path d="M16.7438 10.5562C15.6085 15.1098 10.9965 17.8811 6.44231 16.7455C1.89007 15.6103 -0.881172 10.9979 0.254562 6.44468C1.3893 1.89056 6.00137 -0.880887 10.5541 0.254349C15.1079 1.38959 17.879 6.00245 16.7437 10.5563L16.7437 10.5562H16.7438Z" fill="#F3BA2F"/>
<path fill-rule="evenodd" clip-rule="evenodd" d="M8.50028 5.39458L6.29925 7.59561L6.2993 7.59552L5.01868 6.31485L8.50028 2.83325L11.983 6.31589L10.7023 7.59656L8.50028 5.39458ZM4.11421 7.219L2.8335 8.4999L4.11412 9.78034L5.39483 8.49963L4.11421 7.219ZM6.29899 9.40436L8.50002 11.6053L10.702 9.40332L11.9834 10.6833L11.9827 10.684L8.50002 14.1666L5.01841 10.685L5.0166 10.6832L6.29899 9.40436ZM12.8861 7.2197L11.6053 8.50041L12.886 9.78103L14.1667 8.50032L12.8861 7.2197Z" fill="white"/>
<path d="M9.7988 8.49923H9.79935L8.49991 7.19971L7.53944 8.15991L7.42909 8.2703L7.20152 8.49792L7.19971 8.49969L7.20152 8.50154L8.49991 9.80012L9.79944 8.50059L9.80007 8.49987L9.79889 8.49923" fill="white"/>
</svg>
