<svg width="25" height="26" viewBox="0 0 25 26" fill="none" xmlns="http://www.w3.org/2000/svg">
<path fill-rule="evenodd" clip-rule="evenodd" d="M12.4665 25.047C5.86697 24.9725 0.528277 19.512 0.60347 12.8526C0.737982 6.25381 6.13861 0.914555 12.7975 1.04974C19.3964 1.18426 24.6758 6.5841 24.5999 13.3035C24.4661 19.8423 19.0661 25.1216 12.4665 25.047Z" fill="#FC070C"/>
<path fill-rule="evenodd" clip-rule="evenodd" d="M20.0895 9.53813L20.0895 9.53812C19.5399 8.99227 18.9591 8.41551 18.4461 7.94968L18.394 7.91234C18.3075 7.84121 18.2096 7.78509 18.1045 7.74631L17.7053 7.66717C14.9513 7.12106 6.02458 5.3509 5.84031 5.3712C5.7858 5.37821 5.73355 5.39735 5.68742 5.42723L5.6371 5.46604C5.57499 5.52771 5.5275 5.60252 5.49812 5.68498L5.48461 5.71895L5.48251 5.90532L5.48218 5.93419C6.07042 7.6322 7.60546 11.4267 9.02282 14.9304L9.02283 14.9304C10.2211 17.8926 11.3353 20.6468 11.7221 21.7504L11.7223 21.7508C11.773 21.9143 11.8692 22.2246 12.0552 22.2424L12.0972 22.2429C12.1969 22.244 12.6285 21.6871 12.6285 21.6871C12.6285 21.6871 20.3341 12.5545 21.1142 11.5815C21.2152 11.4617 21.3045 11.3326 21.3811 11.196C21.4225 10.9777 21.3463 10.7536 21.1804 10.6057C20.8563 10.2997 20.4808 9.92674 20.0895 9.53814L20.0895 9.53813ZM14.6927 11.6063L17.9673 8.95246L19.8505 10.7273L14.6927 11.6063ZM7.90045 6.77543L13.4344 11.4162L16.9189 8.54423L7.90045 6.77543ZM13.9254 12.6213L19.6527 11.7646L13.028 19.5653L13.9254 12.6213ZM12.9576 12.2772L7.13692 7.22368L12.0248 19.5594L12.9576 12.2772Z" fill="white"/>
</svg>
