<svg width="24" height="25" viewBox="0 0 24 25" fill="none" xmlns="http://www.w3.org/2000/svg">
<path d="M23.6383 15.4029C22.0356 21.8315 15.5244 25.7438 9.09503 24.1407C2.66833 22.5381 -1.24401 16.0265 0.359382 9.59837C1.96137 3.16903 8.47253 -0.743606 14.8999 0.859081C21.3289 2.46177 25.241 8.97405 23.6381 15.403L23.6382 15.4029H23.6383Z" fill="#50AF95"/>
<path fill-rule="evenodd" clip-rule="evenodd" d="M13.5185 13.8604C13.4337 13.8668 12.9953 13.893 12.0174 13.893C11.2396 13.893 10.6873 13.8696 10.4936 13.8604C7.48774 13.7282 5.24414 13.205 5.24414 12.5785C5.24414 11.952 7.48774 11.4295 10.4936 11.2951V13.3393C10.6902 13.3535 11.253 13.3867 12.0308 13.3867C12.9642 13.3867 13.4315 13.3478 13.5157 13.34V11.2965C16.5152 11.4302 18.7538 11.9534 18.7538 12.5785C18.7538 13.2036 16.5159 13.7268 13.5157 13.8597L13.5185 13.8604ZM13.5184 11.085V9.25578H17.7044V6.46631H6.30751V9.25578H10.4928V11.0843C7.09097 11.2406 4.53271 11.9144 4.53271 12.7219C4.53271 13.5294 7.09097 14.2026 10.4928 14.3596V20.2213H13.5177V14.3574C16.9117 14.2012 19.4658 13.528 19.4658 12.7212C19.4658 11.9144 16.9139 11.2413 13.5177 11.0843L13.5184 11.085Z" fill="white"/>
</svg>
