<svg width="25" height="24" viewBox="0 0 25 24" fill="none" xmlns="http://www.w3.org/2000/svg">
<g clip-path="url(#clip0_53_20530)">
<path d="M21.6325 14.341C21.2135 14.606 20.7205 14.639 20.3465 14.428C19.8705 14.158 19.6085 13.53 19.6085 12.654V10.036C19.6085 8.772 19.1085 7.872 18.2725 7.629C16.8565 7.216 15.7905 8.949 15.3905 9.601L12.8925 13.651V8.701C12.8645 7.561 12.4945 6.88 11.7925 6.674C11.3265 6.539 10.6315 6.593 9.95553 7.627L4.35853 16.614C3.60926 15.1916 3.21862 13.6077 3.22053 12C3.22053 6.586 7.55953 2.182 12.8925 2.182C18.2245 2.182 22.5625 6.586 22.5625 12C22.5665 12.018 22.5645 12.034 22.5655 12.053C22.6155 13.102 22.2755 13.936 21.6325 14.343V14.341ZM24.7125 12.001L24.7115 11.946C24.6815 5.353 19.3915 0 12.8915 0C6.37453 0 1.07153 5.383 1.07153 12C1.07153 18.616 6.37453 24 12.8915 24C15.8825 24 18.7375 22.863 20.9285 20.8C21.3635 20.39 21.3885 19.7 20.9855 19.259C20.8905 19.1541 20.7754 19.0692 20.6471 19.0094C20.5188 18.9495 20.3799 18.9158 20.2384 18.9103C20.097 18.9048 19.9558 18.9276 19.8233 18.9774C19.6907 19.0271 19.5695 19.1028 19.4665 19.2C17.6907 20.8814 15.3381 21.8183 12.8925 21.818C10.0365 21.818 7.46753 20.555 5.69553 18.55L10.7435 10.445V14.182C10.7435 15.976 11.4395 16.556 12.0235 16.726C12.6075 16.896 13.4995 16.78 14.4365 15.258C15.4345 13.644 16.4615 11.961 17.4595 10.378V12.654C17.4595 14.332 18.1315 15.674 19.3025 16.334C20.3585 16.931 21.6865 16.877 22.7675 16.194C24.0795 15.366 24.7855 13.84 24.7115 12.001H24.7125Z" fill="#C4C4C4"/>
</g>
<defs>
<clipPath id="clip0_53_20530">
<rect width="24" height="24" fill="white" transform="translate(0.894531)"/>
</clipPath>
</defs>
</svg>
