<svg width="23" height="16" viewBox="0 0 23 16" fill="none" xmlns="http://www.w3.org/2000/svg">
<path fill-rule="evenodd" clip-rule="evenodd" d="M16.7206 15.6874C16.7206 15.6874 16.0617 14.9003 15.5126 14.2048C17.9104 13.5276 18.8255 12.0267 18.8255 12.0267C18.0751 12.5209 17.3613 12.8687 16.7206 13.1066C15.8055 13.491 14.9269 13.7472 14.0667 13.8937C12.3096 14.2231 10.6989 14.1316 9.32613 13.8754C8.28284 13.674 7.38598 13.3812 6.63555 13.0883C6.21457 12.9236 5.75699 12.7223 5.29941 12.466C5.27196 12.4477 5.2445 12.434 5.21705 12.4203C5.18959 12.4065 5.16214 12.3928 5.13468 12.3745C5.09808 12.3562 5.07977 12.3379 5.06147 12.3196C4.73201 12.1366 4.54898 12.0084 4.54898 12.0084C4.54898 12.0084 5.42754 13.4727 7.75205 14.1682C7.20295 14.8637 6.52573 15.6874 6.52573 15.6874C2.48071 15.5593 0.943237 12.9053 0.943237 12.9053C0.943237 7.01164 3.57891 2.23449 3.57891 2.23449C6.21457 0.257743 8.72212 0.312652 8.72212 0.312652L8.90515 0.532292C5.61057 1.48406 4.0914 2.93002 4.0914 2.93002C4.0914 2.93002 4.49407 2.71038 5.17129 2.39922C7.12974 1.53897 8.68551 1.30103 9.32613 1.24612C9.34008 1.24379 9.35373 1.24147 9.36716 1.23918C9.45949 1.22346 9.54141 1.20951 9.63728 1.20951C10.7538 1.06309 12.0167 1.02648 13.3345 1.17291C15.0733 1.37424 16.9403 1.88673 18.8438 2.93002C18.8438 2.93002 17.3979 1.55727 14.2863 0.605504L14.5426 0.312652C14.5426 0.312652 17.0501 0.257743 19.6858 2.23449C19.6858 2.23449 22.3214 7.01164 22.3214 12.9053C22.3214 12.9053 20.7657 15.5593 16.7206 15.6874ZM6.42543 8.44729C6.42543 7.33079 7.24907 6.41563 8.29236 6.41563C9.33565 6.41563 10.1776 7.33079 10.1593 8.44729C10.1593 9.56379 9.33565 10.4789 8.29236 10.4789C7.26738 10.4789 6.42543 9.56379 6.42543 8.44729ZM13.1061 8.44729C13.1061 7.33079 13.9298 6.41563 14.973 6.41563C16.0163 6.41563 16.84 7.33079 16.84 8.44729C16.84 9.56379 16.0163 10.4789 14.973 10.4789C13.9481 10.4789 13.1061 9.56379 13.1061 8.44729Z" fill="#C4C4C4"/>
</svg>
