<svg width="21" height="20" viewBox="0 0 21 20" fill="none" xmlns="http://www.w3.org/2000/svg">
<path fill-rule="evenodd" clip-rule="evenodd" d="M10.6323 0C5.10932 0 0.632324 4.484 0.632324 10.017C0.632324 14.442 3.49732 18.197 7.47132 19.521C7.97132 19.613 8.15332 19.304 8.15332 19.038C8.15332 18.801 8.14532 18.17 8.14032 17.335C5.35832 17.94 4.77132 15.992 4.77132 15.992C4.31732 14.834 3.66132 14.526 3.66132 14.526C2.75332 13.906 3.73032 13.918 3.73032 13.918C4.73332 13.988 5.26132 14.95 5.26132 14.95C6.15332 16.48 7.60232 16.038 8.17132 15.782C8.26332 15.135 8.52132 14.694 8.80732 14.444C6.58732 14.191 4.25232 13.331 4.25232 9.493C4.25232 8.4 4.64232 7.505 5.28132 6.805C5.17832 6.552 4.83532 5.533 5.37932 4.155C5.37932 4.155 6.21932 3.885 8.12932 5.181C8.94509 4.95851 9.78676 4.84519 10.6323 4.844C11.4823 4.848 12.3373 4.959 13.1363 5.181C15.0453 3.885 15.8833 4.154 15.8833 4.154C16.4293 5.533 16.0853 6.552 15.9833 6.805C16.6233 7.505 17.0113 8.4 17.0113 9.493C17.0113 13.341 14.6723 14.188 12.4453 14.436C12.8043 14.745 13.1233 15.356 13.1233 16.291C13.1233 17.629 13.1113 18.71 13.1113 19.038C13.1113 19.306 13.2913 19.618 13.7993 19.52C15.7906 18.8521 17.5217 17.5753 18.7478 15.87C19.9739 14.1648 20.6332 12.1173 20.6323 10.017C20.6323 4.484 16.1543 0 10.6323 0Z" fill="#C4C4C4"/>
</svg>
