<svg width="24" height="18" viewBox="0 0 24 18" fill="none" xmlns="http://www.w3.org/2000/svg">
<g clip-path="url(#clip0_53_20525)">
<path d="M8.55736 4.68042C8.53005 4.46347 8.48908 4.23909 8.47347 4.01101C8.40519 2.95033 9.24209 2.19376 10.3131 2.15668C10.4867 2.15111 10.6603 2.16966 10.8418 2.17893C10.8359 2.11403 10.8339 2.04356 10.8261 1.97495C10.7189 1.01626 11.3334 0.228172 12.3322 0.0464473C12.6443 -0.011037 12.9584 -0.0165999 13.2705 0.050156C13.7816 0.161416 14.1289 0.467381 14.3591 0.903149C14.3747 0.932818 14.3903 0.962487 14.4117 1.00328C14.4429 0.986594 14.4702 0.973613 14.4976 0.958779C15.0282 0.682483 15.5861 0.60831 16.1714 0.767782C16.5986 0.882751 16.9049 1.13865 17.1136 1.50581C17.336 1.89892 17.4491 2.32542 17.5369 2.75933C17.7359 3.75697 18.0012 4.73234 18.4889 5.64282C18.7601 6.14905 19.0566 6.6423 19.396 7.1096C19.4097 7.12999 19.4272 7.14854 19.4507 7.17821C19.4955 7.09291 19.5384 7.01873 19.5775 6.94271C19.8038 6.50508 20.0944 6.11567 20.4924 5.80229C21.0484 5.36467 21.6843 5.16069 22.4081 5.23116C23.2742 5.3146 23.7522 5.91912 23.8751 6.59038C23.9512 7.00205 23.8361 7.38775 23.6663 7.75861C23.4596 8.21107 23.2333 8.65425 23.0323 9.11042C22.7729 9.7001 22.6422 10.3139 22.6402 10.9573C22.6363 11.9754 22.5017 12.9767 22.1408 13.941C21.3878 15.9455 19.9345 17.2454 17.773 17.8128C16.9107 18.039 16.0348 18.0483 15.1569 17.9037C13.9474 17.7052 12.8764 17.2342 11.9576 16.4536C11.386 15.9696 10.91 15.4077 10.4809 14.8088C9.3767 13.2641 8.44616 11.6305 7.69315 9.90222C7.29323 8.98433 6.90502 8.06458 6.6124 7.1096C6.48755 6.69979 6.43683 6.28257 6.57534 5.86905C6.79188 5.2256 7.28348 4.86956 7.96236 4.7342C8.15744 4.69526 8.36228 4.69711 8.55736 4.68042ZM16.027 17.0674C17.1487 17.0711 17.9895 16.8597 18.7737 16.4443C20.0632 15.7619 20.8747 14.7179 21.2961 13.3865C21.54 12.6188 21.6492 11.8307 21.6473 11.0315C21.6453 10.2935 21.7741 9.58142 22.0589 8.89717C22.2442 8.45028 22.4607 8.01451 22.6695 7.57689C22.769 7.36549 22.8821 7.15781 22.9036 6.92416C22.9348 6.56999 22.7651 6.21025 22.2949 6.16203C22.0764 6.13978 21.8599 6.16018 21.6512 6.22693C21.1966 6.37157 20.8708 6.66827 20.6036 7.03357C20.35 7.37662 20.2037 7.76603 20.0808 8.16286C19.9598 8.55227 19.7316 8.8675 19.4058 9.12711C19.2361 9.26248 19.0683 9.39784 18.9103 9.54434C18.7328 9.70752 18.5552 9.8707 18.4011 10.0543C18.1046 10.4085 17.9915 10.8331 17.9329 11.2726C17.9173 11.3931 17.8608 11.4747 17.7378 11.4951C17.572 11.5229 17.4043 11.5396 17.2384 11.5489C17.1136 11.5544 17.0375 11.4932 17.0317 11.3746C17.0219 11.2244 17.018 11.0704 17.0414 10.924C17.1448 10.2787 17.4686 9.73718 17.9446 9.27731C18.1729 9.0585 18.4323 8.86936 18.6664 8.65611C18.7854 8.54856 18.881 8.41876 18.9844 8.29822C19.0215 8.25557 19.0117 8.21107 18.9747 8.16657C18.8713 8.03862 18.7718 7.90881 18.6762 7.77716C18.048 6.91304 17.5116 6.00256 17.135 5.0142C16.858 4.2873 16.6942 3.53259 16.5381 2.77602C16.4854 2.52013 16.3957 2.26979 16.3001 2.02687C16.2221 1.83031 16.0621 1.69495 15.8397 1.64859C15.5529 1.5874 15.2759 1.62078 15.0204 1.75985C14.7804 1.88965 14.6634 2.08621 14.7004 2.35324C14.7375 2.63509 14.7726 2.91695 14.8175 3.19696C15.0516 4.63406 15.6212 5.96177 16.3216 7.24311C16.3976 7.38218 16.5108 7.43225 16.6727 7.41556C16.8132 7.40073 16.9595 7.39331 17.0999 7.40444C17.1858 7.41 17.2814 7.43967 17.3496 7.48788C17.535 7.61768 17.492 7.86802 17.2775 7.94219C17.1838 7.97557 17.0843 7.99597 16.9868 8.01637C16.1577 8.19438 15.3696 8.46511 14.6497 8.90459C14.1289 9.22354 13.6743 9.61109 13.2861 10.0691C13.1632 10.2137 13.0462 10.2175 12.9116 10.0839C12.8491 10.0209 12.7945 9.95229 12.7418 9.88182C12.5721 9.66116 12.5702 9.54063 12.7438 9.32181C12.8589 9.17718 12.9818 9.0381 13.1047 8.89717C13.173 8.81744 13.1808 8.74141 13.1222 8.6524C13.0345 8.51889 12.9447 8.38538 12.8686 8.2463C12.1605 6.96125 11.6221 5.61686 11.3334 4.18902C11.2807 3.92571 11.2144 3.66425 11.0661 3.4306C10.9783 3.29153 10.8613 3.18398 10.6954 3.1302C9.99315 2.90583 9.34158 3.41391 9.46643 4.10558C9.53471 4.48757 9.6342 4.86586 9.74735 5.23672C10.1843 6.67754 10.7286 8.07756 11.4972 9.39228C11.5909 9.55175 11.6825 9.71122 11.7586 9.87811C11.7937 9.95229 11.8074 10.0469 11.7976 10.1284C11.7801 10.2768 11.6767 10.3714 11.5304 10.4159C11.3607 10.4678 11.1968 10.4585 11.07 10.3306C10.9822 10.2416 10.9042 10.1396 10.8398 10.0339C10.2448 9.04737 9.74735 8.01822 9.36109 6.939C9.24989 6.63118 9.1387 6.31965 8.99044 6.02667C8.81291 5.67805 8.57687 5.58534 8.175 5.64653C7.81215 5.7003 7.54294 5.91912 7.49807 6.2325C7.47466 6.38826 7.48051 6.55701 7.52148 6.70906C7.61707 7.05397 7.73022 7.39516 7.85897 7.73265C8.57882 9.63705 9.41961 11.4895 10.553 13.2122C10.9881 13.8742 11.4231 14.5362 11.9557 15.1351C13.0735 16.3961 14.5093 17.0358 16.027 17.0674ZM15.4905 7.59172C15.4749 7.55649 15.4632 7.52868 15.4496 7.50086C15.2174 7.01132 14.9814 6.52548 14.757 6.03223C14.5229 5.52043 14.3005 5.00308 14.162 4.45976C13.9747 3.71988 13.8323 2.97073 13.727 2.21602C13.686 1.92303 13.5943 1.6319 13.4987 1.34819C13.4032 1.06818 13.1691 0.940235 12.8608 0.936527C12.7613 0.936527 12.6599 0.94209 12.5604 0.95507C12.0337 1.02924 11.745 1.34633 11.7703 1.84886C11.7957 2.3588 11.8971 2.85576 12.0571 3.3453C12.1898 3.75326 12.2951 4.17048 12.3926 4.58956C12.6736 5.79858 13.1554 6.93158 13.7972 8.00524C13.9143 8.19994 13.9943 8.2259 14.2108 8.13133C14.4468 8.02749 14.677 7.91438 14.915 7.81424C15.0984 7.73451 15.2915 7.66775 15.4905 7.59172Z" fill="#C4C4C4"/>
<path d="M1.66513 2.63124C1.72365 2.36607 1.84655 2.08236 2.10796 1.87096C2.24062 1.76341 2.40644 1.75229 2.5586 1.81719C2.73807 1.89322 2.9195 1.97666 3.07556 2.08792C3.77785 2.57932 4.47624 3.07813 5.17073 3.58066C5.40677 3.75126 5.42823 3.86993 5.29753 4.12583C5.25266 4.21484 5.20194 4.30199 5.14342 4.38173C5.04588 4.51524 4.90152 4.56716 4.74155 4.51153C4.51721 4.43365 4.28896 4.35391 4.08218 4.24451C3.37404 3.86993 2.67175 3.48423 1.96946 3.09853C1.89728 3.05959 1.8329 3.00396 1.77242 2.94833C1.69244 2.87045 1.66318 2.787 1.66513 2.63124Z" fill="#C4C4C4"/>
<path d="M2.463 12.5538C2.4552 12.3591 2.54299 12.2107 2.71466 12.1125C2.82195 12.0513 2.93705 11.9975 3.05605 11.9567C3.87344 11.6785 4.69277 11.4041 5.51016 11.1297C5.58234 11.1055 5.66037 11.0926 5.73841 11.0852C5.86326 11.0759 5.9686 11.1222 6.04858 11.2112C6.16173 11.3355 6.22221 11.4838 6.24952 11.6452C6.27098 11.7787 6.22416 11.8918 6.11491 11.9734C6.02713 12.0401 5.93349 12.105 5.834 12.1551C5.04977 12.5427 4.26165 12.9265 3.47352 13.3085C3.39159 13.3493 3.2999 13.3753 3.20821 13.3975C2.98777 13.4494 2.8122 13.3753 2.68539 13.2009C2.54494 13.0081 2.48056 12.7874 2.463 12.5538Z" fill="#C4C4C4"/>
<path d="M3.12821 8.40386C2.55467 8.37234 1.98113 8.34267 1.4076 8.30558C1.06035 8.28333 0.896484 8.12015 0.896484 7.78637C0.896484 7.60835 0.912091 7.42848 0.953058 7.25603C1.00573 7.0298 1.14619 6.92781 1.38809 6.94079C1.669 6.95563 1.94992 6.98901 2.22888 7.03166C2.94288 7.14292 3.65492 7.26159 4.36697 7.38398C4.48011 7.40252 4.59131 7.44517 4.69665 7.48968C4.82151 7.54345 4.89759 7.64359 4.88978 7.77524C4.88198 7.90319 4.86637 8.033 4.83126 8.15724C4.78444 8.32413 4.65569 8.41684 4.47231 8.41684C4.14848 8.4187 3.82269 8.41128 3.49886 8.40943C3.37596 8.40757 3.25306 8.40943 3.12821 8.40943C3.12821 8.40572 3.12821 8.40572 3.12821 8.40386Z" fill="#C4C4C4"/>
</g>
<defs>
<clipPath id="clip0_53_20525">
<rect width="23" height="18" fill="white" transform="translate(0.894531)"/>
</clipPath>
</defs>
</svg>
