<svg width="21" height="22" viewBox="0 0 21 22" fill="none" xmlns="http://www.w3.org/2000/svg">
<g clip-path="url(#clip0_53_20523)">
<path d="M19.3947 0.868896H2.12824C1.30114 0.868896 0.632324 1.52188 0.632324 2.3292V19.6668C0.632324 20.4742 1.30114 21.1311 2.12824 21.1311H19.3947C20.2218 21.1311 20.8945 20.4742 20.8945 19.6708V2.3292C20.8945 1.52188 20.2218 0.868896 19.3947 0.868896ZM6.64371 18.1353H3.63604V8.46327H6.64371V18.1353ZM5.13987 7.14543C4.17425 7.14543 3.39463 6.36581 3.39463 5.40415C3.39463 4.44248 4.17425 3.66286 5.13987 3.66286C6.10154 3.66286 6.88116 4.44248 6.88116 5.40415C6.88116 6.36185 6.10154 7.14543 5.13987 7.14543ZM17.8987 18.1353H14.895V13.4338C14.895 12.3139 14.8752 10.8694 13.3318 10.8694C11.7686 10.8694 11.5312 12.0923 11.5312 13.3547V18.1353H8.53142V8.46327H11.4125V9.78506H11.452C11.8517 9.02523 12.8332 8.22186 14.2935 8.22186C17.3368 8.22186 17.8987 10.2243 17.8987 12.8283V18.1353Z" fill="#C4C4C4"/>
</g>
<defs>
<clipPath id="clip0_53_20523">
<rect width="20.2622" height="20.2622" fill="white" transform="translate(0.632324 0.868896)"/>
</clipPath>
</defs>
</svg>
