<svg width="21" height="20" viewBox="0 0 21 20" fill="none" xmlns="http://www.w3.org/2000/svg">
<g clip-path="url(#clip0_53_20524)">
<path d="M12.1757 9.8565C12.1757 12.9988 9.65032 15.5461 6.53523 15.5461C3.42014 15.5461 0.894531 12.9982 0.894531 9.8565C0.894531 6.71481 3.41995 4.16675 6.53523 4.16675C9.65051 4.16675 12.1757 6.71423 12.1757 9.8565Z" fill="#C4C4C4"/>
<path d="M18.3636 9.85646C18.3636 12.8142 17.1009 15.2129 15.5433 15.2129C13.9856 15.2129 12.7229 12.8142 12.7229 9.85646C12.7229 6.8987 13.9854 4.5 15.5431 4.5C17.1007 4.5 18.3634 6.89793 18.3634 9.85646" fill="#C4C4C4"/>
<path d="M20.8945 9.8564C20.8945 12.5058 20.4505 14.6549 19.9026 14.6549C19.3547 14.6549 18.9109 12.5064 18.9109 9.8564C18.9109 7.2064 19.3549 5.05786 19.9026 5.05786C20.4503 5.05786 20.8945 7.2062 20.8945 9.8564Z" fill="#C4C4C4"/>
</g>
<defs>
<clipPath id="clip0_53_20524">
<rect width="20" height="20" fill="white" transform="translate(0.894531)"/>
</clipPath>
</defs>
</svg>
