<svg width="21" height="20" viewBox="0 0 21 20" fill="none" xmlns="http://www.w3.org/2000/svg">
<path fill-rule="evenodd" clip-rule="evenodd" d="M20.6323 10C20.6323 15.5228 16.1552 20 10.6323 20C5.10948 20 0.632324 15.5228 0.632324 10C0.632324 4.47715 5.10948 0 10.6323 0C16.1552 0 20.6323 4.47715 20.6323 10ZM15.837 8.53799C16.644 8.53799 17.299 9.19296 17.299 9.99998C17.299 10.5965 16.9364 11.1111 16.4569 11.345C16.4803 11.4854 16.492 11.6257 16.492 11.7778C16.492 14.0234 13.8838 15.8362 10.6557 15.8362C7.42765 15.8362 4.81946 14.0234 4.81946 11.7778C4.81946 11.6257 4.83116 11.4737 4.85455 11.3333C4.33993 11.0994 3.98905 10.5965 3.98905 9.99998C3.98905 9.19296 4.64403 8.53799 5.45104 8.53799C5.83701 8.53799 6.19958 8.70173 6.45689 8.94735C7.46274 8.21051 8.85455 7.75437 10.4101 7.70758L11.1469 4.2222C11.1703 4.15203 11.2054 4.09355 11.2639 4.05846C11.3224 4.02337 11.3926 4.01168 11.4627 4.02337L13.8838 4.53799C14.0475 4.18711 14.3984 3.9532 14.8078 3.9532C15.3809 3.9532 15.8487 4.42103 15.8487 4.99413C15.8487 5.56723 15.3809 6.03507 14.8078 6.03507C14.2464 6.03507 13.7902 5.59062 13.7668 5.04092L11.6031 4.58478L10.9364 7.70758C12.4569 7.76606 13.837 8.2339 14.8312 8.94735C15.0885 8.69004 15.4393 8.53799 15.837 8.53799ZM8.33993 9.99998C7.76683 9.99998 7.299 10.4678 7.299 11.0409C7.299 11.614 7.76683 12.0819 8.33993 12.0819C8.91303 12.0819 9.38087 11.614 9.38087 11.0409C9.38087 10.4678 8.91303 9.99998 8.33993 9.99998ZM10.644 14.5497C11.0417 14.5497 12.3984 14.5029 13.1119 13.7895C13.2171 13.6842 13.2171 13.5204 13.1353 13.4035C13.03 13.2982 12.8546 13.2982 12.7493 13.4035C12.2931 13.8479 11.3458 14.0117 10.6557 14.0117C9.96566 14.0117 9.0066 13.8479 8.56215 13.4035C8.45689 13.2982 8.28145 13.2982 8.17619 13.4035C8.07093 13.5088 8.07093 13.6842 8.17619 13.7895C8.87794 14.4912 10.2464 14.5497 10.644 14.5497ZM11.8838 11.0409C11.8838 11.614 12.3516 12.0819 12.9247 12.0819C13.4978 12.0819 13.9657 11.614 13.9657 11.0409C13.9657 10.4678 13.4978 9.99998 12.9247 9.99998C12.3516 9.99998 11.8838 10.4678 11.8838 11.0409Z" fill="#C4C4C4"/>
</svg>
