<svg width="19" height="16" viewBox="0 0 19 16" fill="none" xmlns="http://www.w3.org/2000/svg">
<path fill-rule="evenodd" clip-rule="evenodd" d="M2.13194 6.9574C6.96377 4.84056 10.1857 3.445 11.7979 2.77074C16.4008 0.845581 17.3573 0.511161 17.9807 0.500118C18.1178 0.497689 18.4243 0.531858 18.6229 0.69389C18.7906 0.830707 18.8367 1.01553 18.8588 1.14524C18.8809 1.27496 18.9084 1.57046 18.8865 1.80136C18.6371 4.43675 17.5578 10.8322 17.0087 13.7838C16.7764 15.0328 16.3189 15.4516 15.876 15.4926C14.9135 15.5816 14.1826 14.8529 13.2503 14.2384C11.7916 13.2769 10.9674 12.6783 9.55144 11.74C7.91501 10.6556 8.97584 10.0596 9.90844 9.08562C10.1525 8.83071 14.3934 4.95188 14.4755 4.60001C14.4857 4.55601 14.4952 4.39197 14.3983 4.30535C14.3014 4.21873 14.1584 4.24835 14.0552 4.27191C13.9089 4.3053 11.5784 5.85418 7.06391 8.91854C6.40243 9.37529 5.80328 9.59783 5.26646 9.58617C4.67466 9.57331 3.53628 9.2497 2.69001 8.97308C1.65203 8.6338 0.827056 8.45442 0.898892 7.87821C0.936309 7.57809 1.34732 7.27115 2.13194 6.9574Z" fill="#6B9EF0"/>
</svg>
