<svg width="21" height="18" viewBox="0 0 21 18" fill="none" xmlns="http://www.w3.org/2000/svg">
<path d="M6.92412 17.1251C14.4694 17.1251 18.5976 10.8724 18.5976 5.45167C18.5976 5.27589 18.5937 5.0962 18.5858 4.92042C19.3889 4.33967 20.0819 3.62033 20.6323 2.7962C19.8844 3.12896 19.0904 3.34627 18.2772 3.44074C19.1334 2.92755 19.7744 2.12135 20.0815 1.17159C19.2761 1.64892 18.3953 1.98563 17.4769 2.1673C16.858 1.50976 16.0398 1.07439 15.1487 0.928498C14.2576 0.78261 13.3433 0.934331 12.5471 1.3602C11.7509 1.78607 11.1172 2.46238 10.7439 3.28455C10.3706 4.10672 10.2785 5.02897 10.4819 5.9087C8.85107 5.82686 7.2556 5.40321 5.79898 4.6652C4.34235 3.9272 3.05707 2.89132 2.02646 1.62472C1.50266 2.52782 1.34237 3.59649 1.57818 4.61353C1.814 5.63057 2.42821 6.51966 3.296 7.10011C2.64451 7.07943 2.0073 6.90402 1.43701 6.58839V6.63917C1.43643 7.58691 1.76407 8.50561 2.36425 9.2391C2.96443 9.97258 3.80009 10.4756 4.7292 10.6626C4.1257 10.8277 3.49231 10.8518 2.87803 10.7329C3.1402 11.548 3.6503 12.2609 4.33713 12.7721C5.02396 13.2833 5.85326 13.5673 6.70928 13.5845C5.25601 14.726 3.4608 15.3452 1.61279 15.3423C1.28506 15.3418 0.957657 15.3217 0.632324 15.2821C2.5097 16.4866 4.6936 17.1263 6.92412 17.1251Z" fill="#C4C4C4"/>
</svg>
