<svg width="25" height="18" viewBox="0 0 25 18" fill="none" xmlns="http://www.w3.org/2000/svg">
<path d="M24.3933 4.20005C24.3933 4.20005 24.1589 2.54536 23.437 1.8188C22.5229 0.862549 21.5011 0.857861 21.0323 0.801611C17.6761 0.557861 12.637 0.557861 12.637 0.557861H12.6276C12.6276 0.557861 7.58857 0.557861 4.23232 0.801611C3.76357 0.857861 2.7417 0.862549 1.82764 1.8188C1.10576 2.54536 0.876074 4.20005 0.876074 4.20005C0.876074 4.20005 0.632324 6.14536 0.632324 8.08599V9.90474C0.632324 11.8454 0.871387 13.7907 0.871387 13.7907C0.871387 13.7907 1.10576 15.4454 1.82295 16.1719C2.73701 17.1282 3.93701 17.0954 4.47139 17.1985C6.39326 17.3813 12.6323 17.4375 12.6323 17.4375C12.6323 17.4375 17.6761 17.4282 21.0323 17.1891C21.5011 17.1329 22.5229 17.1282 23.437 16.1719C24.1589 15.4454 24.3933 13.7907 24.3933 13.7907C24.3933 13.7907 24.6323 11.85 24.6323 9.90474V8.08599C24.6323 6.14536 24.3933 4.20005 24.3933 4.20005ZM10.1526 12.1125V5.36724L16.6354 8.75161L10.1526 12.1125Z" fill="#C4C4C4"/>
</svg>
