<svg width="24" height="24" viewBox="0 0 24 24" fill="none" xmlns="http://www.w3.org/2000/svg">
<path fill-rule="evenodd" clip-rule="evenodd" d="M9 13V12C9 10.346 10.346 9 12 9H13V5.667C13 5.299 12.701 5 12.333 5H5.667C5.299 5 5 5.299 5 5.667V12.333C5 12.701 5.299 13 5.667 13H9ZM9 15H5.667C4.196 15 3 13.804 3 12.333V5.667C3 4.196 4.196 3 5.667 3H12.333C13.804 3 15 4.196 15 5.667V9H18C19.654 9 21 10.346 21 12V18C21 19.654 19.654 21 18 21H12C10.346 21 9 19.654 9 18V15ZM11.0001 11.9998C11.0001 11.4488 11.4491 10.9998 12.0001 10.9998H18.0001C18.5521 10.9998 19.0001 11.4488 19.0001 11.9998V17.9998C19.0001 18.5508 18.5521 18.9998 18.0001 18.9998H12.0001C11.4491 18.9998 11.0001 18.5508 11.0001 17.9998V11.9998Z" fill="#C4C4C4"/>
<mask id="mask0_10_12021" style="mask-type:luminance" maskUnits="userSpaceOnUse" x="3" y="3" width="18" height="18">
<path fill-rule="evenodd" clip-rule="evenodd" d="M9 13V12C9 10.346 10.346 9 12 9H13V5.667C13 5.299 12.701 5 12.333 5H5.667C5.299 5 5 5.299 5 5.667V12.333C5 12.701 5.299 13 5.667 13H9ZM9 15H5.667C4.196 15 3 13.804 3 12.333V5.667C3 4.196 4.196 3 5.667 3H12.333C13.804 3 15 4.196 15 5.667V9H18C19.654 9 21 10.346 21 12V18C21 19.654 19.654 21 18 21H12C10.346 21 9 19.654 9 18V15ZM11.0001 11.9998C11.0001 11.4488 11.4491 10.9998 12.0001 10.9998H18.0001C18.5521 10.9998 19.0001 11.4488 19.0001 11.9998V17.9998C19.0001 18.5508 18.5521 18.9998 18.0001 18.9998H12.0001C11.4491 18.9998 11.0001 18.5508 11.0001 17.9998V11.9998Z" fill="white"/>
</mask>
<g mask="url(#mask0_10_12021)">
</g>
</svg>
