<svg width="24" height="25" viewBox="0 0 24 25" fill="none" xmlns="http://www.w3.org/2000/svg">
<path d="M11.999 8.5C11.861 8.5 11.749 8.612 11.75 8.75C11.75 8.888 11.862 9 12 9C12.138 9 12.25 8.888 12.25 8.75C12.25 8.612 12.138 8.5 11.999 8.5" stroke="#323232" stroke-width="1.5" stroke-linecap="round" stroke-linejoin="round"/>
<path fill-rule="evenodd" clip-rule="evenodd" d="M12 21.5V21.5C7.029 21.5 3 17.471 3 12.5V12.5C3 7.529 7.029 3.5 12 3.5V3.5C16.971 3.5 21 7.529 21 12.5V12.5C21 17.471 16.971 21.5 12 21.5Z" stroke="#323232" stroke-width="1.5" stroke-linecap="round" stroke-linejoin="round"/>
<path d="M12 12.5V17.5" stroke="#323232" stroke-width="1.5" stroke-linecap="round" stroke-linejoin="round"/>
</svg>
