<svg width="24" height="24" viewBox="0 0 24 24" fill="none" xmlns="http://www.w3.org/2000/svg">
<path d="M11 15.9H3.9C2.85 15.9 2 15.05 2 14V4.9C2 3.85 2.85 3 3.9 3H19.1C20.15 3 21 3.85 21 4.9V10" stroke="#6B9EF0" stroke-width="1.5" stroke-linecap="round" stroke-linejoin="round"/>
<path d="M13.179 7.97102C14.106 8.89802 14.106 10.402 13.179 11.33C12.252 12.257 10.748 12.257 9.82001 11.33C8.89301 10.403 8.89301 8.89902 9.82001 7.97102C10.748 7.04302 12.252 7.04302 13.179 7.97102" stroke="#6B9EF0" stroke-width="1.5" stroke-linecap="round" stroke-linejoin="round"/>
<path d="M6 13H5" stroke="#6B9EF0" stroke-width="1.5" stroke-linecap="round" stroke-linejoin="round"/>
<path d="M18 6H17" stroke="#6B9EF0" stroke-width="1.5" stroke-linecap="round" stroke-linejoin="round"/>
<path fill-rule="evenodd" clip-rule="evenodd" d="M16 14H19.5C20.6046 14 21.5 14.8954 21.5 16V17.5C21.5 18.6046 20.6046 19.5 19.5 19.5H16C14.8954 19.5 14 18.6046 14 17.5V16C14 14.8954 14.8954 14 16 14ZM19.5 15.5H16C15.7239 15.5 15.5 15.7239 15.5 16V17.5C15.5 17.7761 15.7239 18 16 18H19.5C19.7761 18 20 17.7761 20 17.5V16C20 15.7239 19.7761 15.5 19.5 15.5Z" fill="#6B9EF0"/>
<path d="M17.75 11C19.0755 11 20.16 12.0315 20.2447 13.3356L20.25 13.5V14.75C20.25 15.1642 19.9142 15.5 19.5 15.5C19.1203 15.5 18.8065 15.2178 18.7568 14.8518L18.75 14.75V13.5C18.75 12.9477 18.3023 12.5 17.75 12.5C17.2372 12.5 16.8145 12.886 16.7567 13.3834L16.75 13.5V14.75C16.75 15.1642 16.4142 15.5 16 15.5C15.6203 15.5 15.3065 15.2178 15.2568 14.8518L15.25 14.75V13.5C15.25 12.1193 16.3693 11 17.75 11Z" fill="#6B9EF0"/>
</svg>
