<svg width="24" height="24" viewBox="0 0 24 24" fill="none" xmlns="http://www.w3.org/2000/svg">
<path d="M12 1.25C17.3848 1.25 21.75 5.61522 21.75 11C21.75 11.4142 21.4142 11.75 21 11.75C20.5858 11.75 20.25 11.4142 20.25 11C20.25 6.44365 16.5563 2.75 12 2.75C7.44365 2.75 3.75 6.44365 3.75 11C3.75 15.5563 7.44365 19.25 12 19.25C12.4142 19.25 12.75 19.5858 12.75 20C12.75 20.4142 12.4142 20.75 12 20.75C6.61522 20.75 2.25 16.3848 2.25 11C2.25 5.61522 6.61522 1.25 12 1.25Z" fill="#6B9EF0"/>
<path fill-rule="evenodd" clip-rule="evenodd" d="M17.25 17.25H20.75C21.8546 17.25 22.75 18.1454 22.75 19.25V20.75C22.75 21.8546 21.8546 22.75 20.75 22.75H17.25C16.1454 22.75 15.25 21.8546 15.25 20.75V19.25C15.25 18.1454 16.1454 17.25 17.25 17.25ZM20.75 18.75H17.25C16.9739 18.75 16.75 18.9739 16.75 19.25V20.75C16.75 21.0261 16.9739 21.25 17.25 21.25H20.75C21.0261 21.25 21.25 21.0261 21.25 20.75V19.25C21.25 18.9739 21.0261 18.75 20.75 18.75Z" fill="#6B9EF0"/>
<path d="M19 14.25C20.3255 14.25 21.41 15.2815 21.4947 16.5856L21.5 16.75V18C21.5 18.4142 21.1642 18.75 20.75 18.75C20.3703 18.75 20.0565 18.4678 20.0068 18.1018L20 18V16.75C20 16.1977 19.5523 15.75 19 15.75C18.4872 15.75 18.0645 16.136 18.0067 16.6334L18 16.75V18C18 18.4142 17.6642 18.75 17.25 18.75C16.8703 18.75 16.5565 18.4678 16.5068 18.1018L16.5 18V16.75C16.5 15.3693 17.6193 14.25 19 14.25Z" fill="#6B9EF0"/>
<path fill-rule="evenodd" clip-rule="evenodd" d="M8.12501 7.71645L11.125 5.98446C11.6665 5.67185 12.3335 5.67185 12.875 5.98446L15.875 7.71646C16.4164 8.02906 16.75 8.60677 16.75 9.23197V12.768C16.75 13.3932 16.4164 13.9709 15.875 14.2835L12.875 16.0155C12.3335 16.3281 11.6665 16.3281 11.125 16.0155L8.125 14.2835C7.58356 13.9709 7.25 13.3932 7.25 12.768V9.23197C7.25 8.60677 7.58356 8.02906 8.12501 7.71645ZM15.125 9.0155L12.125 7.28349C12.0476 7.23884 11.9524 7.23884 11.875 7.2835L8.875 9.01549C8.79765 9.06015 8.75 9.14268 8.75 9.23197V12.768C8.75 12.8573 8.79765 12.9398 8.87499 12.9845L11.875 14.7165C11.9524 14.7611 12.0476 14.7611 12.125 14.7165L15.125 12.9845C15.2024 12.9398 15.25 12.8573 15.25 12.768V9.23197C15.25 9.14268 15.2024 9.06015 15.125 9.0155Z" fill="#6B9EF0"/>
<path d="M15.491 8.08254C15.8497 7.87543 16.3084 7.99833 16.5156 8.35705C16.7054 8.68587 16.618 9.09871 16.3258 9.32476L16.241 9.38157L12.8749 11.3251C12.3827 11.6091 11.7868 11.635 11.2756 11.4025L11.125 11.325L7.75903 9.38157C7.40031 9.17446 7.27741 8.71577 7.48452 8.35705C7.67437 8.02823 8.07563 7.89755 8.41749 8.03759L8.50904 8.08254L11.8749 10.0259C11.933 10.0594 12.0012 10.0678 12.0642 10.0511L12.125 10.026L15.491 8.08254Z" fill="#6B9EF0"/>
<path d="M12 10.0585C12.3797 10.0585 12.6935 10.3406 12.7432 10.7067L12.75 10.8085V15.5C12.75 15.9142 12.4142 16.25 12 16.25C11.6203 16.25 11.3065 15.9678 11.2568 15.6017L11.25 15.5V10.8085C11.25 10.3943 11.5858 10.0585 12 10.0585Z" fill="#6B9EF0"/>
</svg>
