<svg width="100" height="100" viewBox="0 0 100 100" fill="none" xmlns="http://www.w3.org/2000/svg">
<path fill-rule="evenodd" clip-rule="evenodd" d="M50 100C77.6142 100 100 77.6142 100 50C100 22.3858 77.6142 0 50 0C22.3858 0 0 22.3858 0 50C0 77.6142 22.3858 100 50 100ZM42.7425 22.1592H57.2556L55.9283 63.1593H44.0698L42.7425 22.1592ZM57.5153 74.5851C57.4576 78.7399 53.9663 82.0868 50.0135 82.0868C45.8587 82.0868 42.454 78.7399 42.5117 74.5851C42.454 70.4879 45.8587 67.1699 50.0135 67.1699C53.9663 67.1699 57.4576 70.4879 57.5153 74.5851Z" fill="url(#paint0_linear_10_12010)"/>
<defs>
<linearGradient id="paint0_linear_10_12010" x1="8.27586" y1="100" x2="109.024" y2="89.886" gradientUnits="userSpaceOnUse">
<stop stop-color="#3242F5"/>
<stop offset="1" stop-color="#63D8EC"/>
</linearGradient>
</defs>
</svg>
