<svg width="160" height="30" viewBox="0 0 160 30" fill="none" xmlns="http://www.w3.org/2000/svg">
<g clip-path="url(#clip0_10_11949)">
<path d="M138.809 7.85156C139.774 7.85156 140.677 8.16813 141.471 8.76469C142.301 9.38563 142.753 10.3597 142.851 11.5287C142.855 11.5445 142.854 11.5613 142.846 11.5759C142.839 11.5905 142.826 11.6018 142.811 11.6075L142.777 11.6138H140.897C140.87 11.6138 140.842 11.6 140.83 11.5778L140.824 11.5528C140.604 9.86063 138.541 9.39781 137.296 10.2259C136.429 10.8103 136.258 12.1497 137.089 12.8313C137.414 13.0994 137.788 13.3131 138.168 13.5197L139.174 14.0666L140.056 14.5194C140.497 14.7459 140.934 14.9803 141.349 15.2544C142.777 16.2041 143.253 17.6409 142.996 19.2356C142.704 20.8675 141.264 22.4381 138.48 22.4381C137.418 22.4381 136.393 22.1459 135.453 21.4397C134.452 20.6969 134.086 19.8813 134.086 18.4078C134.086 18.3806 134.106 18.3531 134.132 18.3413L134.159 18.335H136.197C136.234 18.335 136.27 18.3713 136.27 18.4078C136.27 18.5419 136.295 18.8463 136.344 19.0047C136.625 19.8813 137.43 20.4413 138.468 20.5022C139.42 20.5631 140.372 20.0397 140.738 19.2844C141.141 18.4566 140.848 17.4094 139.921 16.8375L139.802 16.765L139.361 16.5131L138.83 16.2225L136.266 14.8706L136.11 14.7838L136.063 14.7553C133.389 13.0991 133.841 7.85156 138.809 7.85156H138.809ZM150.993 8.13156C151.02 8.13156 151.048 8.15219 151.06 8.17781L151.066 8.20469V13.6838C151.066 13.7325 151.113 13.7656 151.157 13.7519L151.188 13.7325L156.571 8.15594C156.579 8.14711 156.589 8.14007 156.599 8.13531L156.62 8.13156H159.22C159.269 8.13156 159.302 8.17844 159.289 8.22219L159.269 8.25344L152.921 14.8284C152.913 14.8373 152.907 14.848 152.904 14.8596C152.901 14.8713 152.902 14.8834 152.904 14.895L152.921 14.9256L159.977 22.1944C160.016 22.2238 160 22.2844 159.967 22.3134L159.94 22.3288H157.34L157.316 22.3209L157.291 22.3041L151.188 16.0216C151.159 15.9825 151.098 15.9981 151.075 16.0372L151.066 16.0703V22.2556C151.066 22.2828 151.045 22.3103 151.02 22.3222L150.993 22.3284H148.954C148.926 22.3284 148.899 22.3081 148.887 22.2825L148.88 22.2556V8.20469C148.88 8.17719 148.901 8.15 148.927 8.13781L148.954 8.13156H150.993ZM47.3051 8.11938C47.3295 8.11938 47.3488 8.125 47.3623 8.13937L47.3785 8.16813L49.0507 13.6716C49.0543 13.684 49.0611 13.6952 49.0703 13.7043C49.0794 13.7134 49.0908 13.72 49.1032 13.7235C49.1156 13.727 49.1288 13.7273 49.1413 13.7243C49.1539 13.7213 49.1655 13.7152 49.1751 13.7066L49.1973 13.6716L50.8698 8.16844C50.8783 8.15037 50.8926 8.13564 50.9104 8.12656L50.9429 8.11938H54.0313C54.0588 8.11938 54.0863 8.14 54.0982 8.16562L54.1044 8.1925V22.2438C54.1044 22.2709 54.0838 22.2984 54.0582 22.3103L54.0313 22.3166H51.9926C51.9654 22.3166 51.9379 22.2963 51.9257 22.2706L51.9195 22.2438V11.5656C51.9195 11.4944 51.8348 11.4656 51.7923 11.5075L51.7729 11.5412L50.0885 17.0813L49.9663 17.4706C49.9577 17.4886 49.9434 17.5032 49.9257 17.5122L49.8932 17.5194H48.3307C48.306 17.5194 48.287 17.5141 48.2735 17.4997L48.2573 17.4706L48.1354 17.0813L46.451 11.5412C46.4304 11.4803 46.3423 11.4788 46.3135 11.5291L46.3041 11.5656V22.2438C46.3041 22.2709 46.2835 22.2984 46.2579 22.3103L46.231 22.3166H44.1923C44.1648 22.3166 44.1373 22.2963 44.1254 22.2706L44.1191 22.2438V8.1925C44.1191 8.165 44.1398 8.13781 44.1654 8.12563L44.1923 8.11938H47.3051ZM106.498 8.11938C106.522 8.11938 106.541 8.125 106.554 8.13937L106.571 8.16813L108.244 13.6716C108.247 13.6839 108.254 13.6951 108.263 13.7041C108.272 13.7132 108.284 13.7197 108.296 13.7232C108.308 13.7267 108.321 13.727 108.334 13.7241C108.346 13.7212 108.358 13.7152 108.368 13.7066L108.39 13.6716L110.062 8.16844C110.07 8.15037 110.084 8.13564 110.102 8.12656L110.135 8.11938H113.236C113.263 8.11938 113.291 8.14 113.303 8.16562L113.309 8.1925V22.2438C113.309 22.2709 113.289 22.2984 113.263 22.3103L113.236 22.3166H111.198C111.17 22.3166 111.143 22.2963 111.131 22.2706L111.124 22.2438V11.5656C111.124 11.4944 111.039 11.4656 110.997 11.5075L110.978 11.5412L109.293 17.0813L109.171 17.4706C109.162 17.4886 109.148 17.5032 109.13 17.5122L109.098 17.5194H107.535C107.51 17.5194 107.491 17.5141 107.478 17.4997L107.462 17.4706L107.339 17.0813L105.656 11.5412C105.635 11.4803 105.547 11.4788 105.518 11.5291L105.509 11.5656V22.2438C105.509 22.2709 105.489 22.2984 105.463 22.3103L105.436 22.3166H103.397C103.369 22.3166 103.342 22.2963 103.33 22.2706L103.324 22.2438V8.1925C103.324 8.165 103.344 8.13781 103.37 8.12563L103.397 8.11938H106.498ZM83.841 8.11938C83.8559 8.11856 83.8707 8.12263 83.8831 8.13098C83.8955 8.13933 83.9049 8.15149 83.9098 8.16562L83.9141 8.1925V9.94563C83.9141 9.97313 83.8935 10.0006 83.8679 10.0125L83.841 10.0188H80.1179V22.2438C80.1179 22.2709 80.0973 22.2984 80.0713 22.3103L80.0445 22.3166H78.006C77.9785 22.3166 77.951 22.2963 77.9391 22.2706L77.9329 22.2438V10.0188H74.2091C74.1816 10.0188 74.1541 9.99813 74.1423 9.9725L74.136 9.94563V8.1925C74.136 8.16469 74.1566 8.1375 74.1823 8.12531L74.2091 8.11906H83.8404L83.841 8.11938ZM93.8873 8.07063C93.912 8.07063 93.931 8.07594 93.9444 8.09031L93.9607 8.11938L97.7935 22.2188C97.7978 22.2359 97.7962 22.2539 97.7891 22.27C97.782 22.2862 97.7697 22.2995 97.7541 22.3078L97.7204 22.3163H95.8654C95.845 22.3141 95.8259 22.3053 95.811 22.2913L95.7923 22.2675L94.6813 18.1644C94.6727 18.1464 94.6585 18.1318 94.6407 18.1228L94.6082 18.1156H90.506C90.4813 18.1156 90.4623 18.1209 90.4488 18.1353L90.4326 18.1644L89.3219 22.2675C89.3134 22.2855 89.2991 22.3001 89.2813 22.3091L89.2485 22.3163H87.3932C87.3757 22.316 87.3588 22.3097 87.3453 22.2985C87.3319 22.2873 87.3226 22.2719 87.3191 22.2547L87.3198 22.2188L91.1529 8.11938C91.1615 8.10142 91.1758 8.08681 91.1935 8.07781L91.226 8.07063H93.8869H93.8873ZM125.528 8.07063C125.553 8.07063 125.572 8.07594 125.585 8.09031L125.602 8.11938L129.434 22.2188C129.438 22.2359 129.437 22.254 129.43 22.2701C129.422 22.2862 129.41 22.2995 129.394 22.3078L129.361 22.3163H127.506C127.495 22.3163 127.485 22.3141 127.475 22.3098C127.465 22.3055 127.456 22.2992 127.449 22.2913L127.433 22.2675L126.322 18.1644C126.313 18.1464 126.299 18.1318 126.281 18.1228L126.249 18.1156H122.147C122.123 18.1156 122.104 18.1209 122.09 18.1353L122.074 18.1644L120.963 22.2675C120.955 22.2855 120.94 22.3001 120.923 22.3091L120.89 22.3163H119.034C119.017 22.316 119 22.3097 118.986 22.2985C118.973 22.2873 118.964 22.2719 118.96 22.2547L118.961 22.2188L122.794 8.11938C122.802 8.10142 122.816 8.08681 122.834 8.07781L122.867 8.07063H125.528H125.528ZM68.6313 8.13156C68.6585 8.13156 68.686 8.15219 68.6979 8.17781L68.7041 8.20469V9.95781C68.7041 9.98531 68.6838 10.0128 68.6579 10.0247L68.631 10.0309H62.4541C62.4266 10.0309 62.3991 10.0516 62.3873 10.0772L62.381 10.1041V13.83C62.381 13.8572 62.4016 13.8847 62.4273 13.8966L62.4541 13.9028H67.8863C67.9138 13.9028 67.9413 13.9234 67.9535 13.9491L67.9598 13.9759V15.7291C67.9598 15.7566 67.9391 15.7841 67.9132 15.7959L67.8863 15.8022H62.4541C62.4266 15.8022 62.3991 15.8228 62.3873 15.8484L62.381 15.8753V20.2344C62.381 20.2669 62.392 20.2884 62.4101 20.3031L62.442 20.3197H68.8873C68.9148 20.3197 68.9423 20.34 68.9545 20.3659L68.9607 20.3925V22.2434C68.9607 22.2706 68.9401 22.2981 68.9144 22.31L68.8873 22.3163H60.2691C60.2416 22.3163 60.2141 22.2959 60.2023 22.27L60.196 22.2434V8.20469C60.196 8.17719 60.2166 8.15 60.2423 8.13781L60.2691 8.13156H68.631H68.6313ZM92.6304 10.6153C92.6267 10.6029 92.62 10.5917 92.6108 10.5826C92.6017 10.5735 92.5903 10.5669 92.5779 10.5634C92.5655 10.5599 92.5523 10.5596 92.5398 10.5626C92.5272 10.5655 92.5156 10.5716 92.506 10.5803L92.4838 10.6153L90.9945 16.1066C90.9851 16.1431 91.0038 16.1797 91.0338 16.1956L91.0676 16.2041H94.0463C94.0638 16.2037 94.0806 16.1974 94.094 16.1862C94.1074 16.175 94.1166 16.1596 94.1201 16.1425L94.1195 16.1066L92.6304 10.6153ZM124.271 10.6153C124.267 10.6029 124.261 10.5917 124.251 10.5826C124.242 10.5735 124.231 10.5669 124.219 10.5634C124.206 10.5599 124.193 10.5596 124.18 10.5626C124.168 10.5655 124.156 10.5716 124.147 10.5803L124.124 10.6153L122.635 16.1066C122.626 16.1431 122.644 16.1797 122.674 16.1956L122.708 16.2041H125.687C125.704 16.2038 125.721 16.1975 125.735 16.1863C125.748 16.1751 125.758 16.1597 125.761 16.1425L125.76 16.1066L124.271 10.6153Z" fill="white"/>
<path d="M31.1748 0L17.4805 10.1328L20.027 4.16125L31.1748 0Z" fill="#E17726"/>
<path d="M0.771699 0.0117188L11.8895 4.16172L14.3076 10.2117L0.771699 0.0117188ZM25.6639 21.5495L31.7164 21.6648L29.6011 28.8508L22.2154 26.8173L25.6639 21.5495ZM6.25045 21.5495L9.68607 26.8173L2.31264 28.8511L0.210449 21.6648L6.25045 21.5495Z" fill="#E27625"/>
<path d="M13.9791 8.67092L14.2266 16.66L6.82471 16.3231L8.93002 13.1469L8.95689 13.1162L13.9791 8.67092ZM17.8591 8.58154L22.9578 13.1165L22.9844 13.1472L25.0897 16.3231L17.6897 16.66L17.8591 8.58154ZM9.90283 21.5728L13.9444 24.7219L9.24971 26.9884L9.90283 21.5728ZM22.0125 21.5725L22.6522 26.9884L17.9706 24.7215L22.0125 21.5725Z" fill="#E27625"/>
<path d="M18.074 24.425L22.8246 26.7254L18.4056 28.8257L18.4515 27.4375L18.074 24.425ZM13.8393 24.426L13.4768 27.4147L13.5065 28.8241L9.07715 26.7254L13.8393 24.426Z" fill="#D5BFB2"/>
<path d="M12.4674 17.7026L13.709 20.3117L9.48242 19.0736L12.4674 17.7026ZM19.4468 17.7029L22.4462 19.0736L18.2059 20.3114L19.4468 17.7029Z" fill="#233447"/>
<path d="M10.2259 21.5462L9.54273 27.1612L5.88086 21.6691L10.2259 21.5462ZM21.689 21.5462L26.0343 21.6691L22.3587 27.1616L21.689 21.5462ZM25.1968 16.0056L22.0343 19.2284L19.5965 18.1144L18.429 20.5681L17.664 16.3484L25.1968 16.0056ZM6.71648 16.0056L14.2505 16.3484L13.4852 20.5681L12.3177 18.1147L9.89242 19.2284L6.71648 16.0056Z" fill="#CC6228"/>
<path d="M6.50342 15.3445L10.0809 18.9748L10.205 22.5588L6.50342 15.3445ZM25.415 15.3379L21.7069 22.5651L21.8462 18.9748L25.415 15.3379ZM14.0756 15.5654L14.2197 16.472L14.5756 18.7298L14.3469 25.6641L13.2653 20.0935L13.265 20.036L14.0756 15.5654ZM17.8372 15.5529L18.65 20.036L18.6497 20.0935L17.5656 25.6782L17.5225 24.2813L17.3534 18.6885L17.8372 15.5529Z" fill="#E27525"/>
<path d="M22.1646 18.8303L22.0437 21.9444L18.2693 24.885L17.5065 24.3459L18.3615 19.9406L22.1646 18.8303ZM9.76367 18.8306L13.5537 19.9409L14.4087 24.3459L13.6459 24.885L9.87148 21.9441L9.76367 18.8306Z" fill="#F5841F"/>
<path d="M8.35498 26.0378L13.1834 28.3257L13.1631 27.3485L13.5672 26.9941H18.3462L18.7647 27.3475L18.7337 28.3238L23.5319 26.0435L21.1972 27.9728L18.374 29.9119H13.5284L10.7072 27.9647L8.35498 26.0378Z" fill="#C0AC9D"/>
<path d="M17.7283 24.1206L18.4111 24.6028L18.8111 27.7947L18.232 27.3059H13.6848L13.1167 27.8047L13.5039 24.6031L14.1867 24.1206H17.7283Z" fill="#161616"/>
<path d="M30.2709 0.280762L31.9147 5.21201L30.8881 10.1983L31.6191 10.7623L30.63 11.517L31.3734 12.0911L30.3891 12.9876L30.9934 13.4254L29.3894 15.2986L22.8106 13.3833L22.7537 13.3526L18.0131 9.35357L30.2709 0.280762ZM1.64375 0.280762L13.9019 9.35357L9.16094 13.3526L9.10406 13.3833L2.52531 15.2986L0.921562 13.4254L1.52531 12.9879L0.54125 12.0911L1.28344 11.5176L0.279375 10.7608L1.03812 10.1964L0 5.21232L1.64375 0.280762Z" fill="#763E1A"/>
<path d="M22.4883 12.9639L29.4589 14.9936L31.7236 21.973H25.7492L21.6323 22.0249L24.6261 16.1896L22.4883 12.9639ZM9.42545 12.9639L7.28701 16.1896L10.2814 22.0249L6.1667 21.973H0.202637L2.45482 14.9936L9.42545 12.9639ZM20.3683 4.12769L18.4183 9.39362L18.0045 16.5071L17.8464 18.7367L17.8339 24.4327H14.0798L14.0676 18.7474L13.9089 16.5052L13.4948 9.39362L11.5454 4.12769H20.3683Z" fill="#F5841F"/>
</g>
<defs>
<clipPath id="clip0_10_11949">
<rect width="160" height="30" fill="white"/>
</clipPath>
</defs>
</svg>
