<svg width="192" height="22" viewBox="0 0 192 22" fill="none" xmlns="http://www.w3.org/2000/svg">
<path d="M7.36993 4.29842C13.2408 -1.43281 22.7592 -1.43281 28.6301 4.29842L29.3367 4.98816C29.6301 5.27475 29.6301 5.73933 29.3367 6.02593L26.9196 8.38545C26.7729 8.52874 26.5349 8.52874 26.3881 8.38545L25.4158 7.43629C21.3202 3.43801 14.6798 3.43801 10.5842 7.43629L9.54295 8.45275C9.3962 8.59605 9.15818 8.59605 9.01144 8.45275L6.5944 6.09323C6.3009 5.80663 6.3009 5.34206 6.5944 5.05546L7.36993 4.29842ZM33.6287 9.17822L35.7798 11.2782C36.0734 11.5647 36.0734 12.0293 35.7798 12.3159L26.0802 21.7851C25.7867 22.0716 25.3107 22.0716 25.0171 21.7851L18.1329 15.0646C18.0595 14.9929 17.9406 14.9929 17.8672 15.0646L10.9831 21.7851C10.6896 22.0716 10.2136 22.0716 9.92013 21.7851L0.220158 12.3158C-0.0733859 12.0292 -0.0733859 11.5647 0.220158 11.2781L2.37131 9.17812C2.66484 8.89152 3.14077 8.89152 3.43431 9.17812L10.3187 15.8987C10.3921 15.9704 10.511 15.9704 10.5843 15.8987L17.4684 9.17812C17.7619 8.89152 18.2378 8.89152 18.5313 9.17803L25.4157 15.8987C25.4891 15.9704 25.6081 15.9704 25.6814 15.8987L32.5657 9.17822C32.8592 8.89162 33.3351 8.89162 33.6287 9.17822Z" fill="#3396FF"/>
<path d="M49.4676 19.0325L52.1015 8.49726C52.2577 7.91691 52.3916 7.29192 52.5701 6.30989C52.7041 7.29192 52.8603 7.91691 52.9719 8.49726L55.2487 19.0325H59.9582L63.9313 3.4082H60.3154L58.128 13.006C57.9048 13.9434 57.7709 14.68 57.6146 15.7737C57.436 14.7246 57.2575 13.9434 57.0566 13.0283L54.9362 3.4082H50.2042L47.9052 13.0283C47.7044 13.9434 47.5481 14.68 47.3695 15.7737C47.191 14.68 47.0347 13.9434 46.8338 13.0283L44.6911 3.4082H40.9189L44.8697 19.0325H49.4676Z" fill="white"/>
<path d="M66.6276 19.434C68.4132 19.434 69.5516 18.6975 70.1319 17.6261C70.065 17.9609 70.0427 18.2957 70.0427 18.6305V19.0323H73.0336V12.5817C73.0336 9.5015 71.6274 7.71582 68.1901 7.71582C65.2214 7.71582 63.2796 9.36758 63.101 11.6442H66.3821C66.4937 10.6398 67.208 10.0371 68.3017 10.0371C69.3284 10.0371 69.8864 10.6175 69.8864 11.2871C69.8864 11.7782 69.5962 12.0683 68.7257 12.1799L67.1633 12.3585C64.842 12.6487 62.8555 13.4968 62.8555 15.9521C62.8555 18.1841 64.7081 19.434 66.6276 19.434ZM67.6321 17.135C66.7616 17.135 66.1142 16.644 66.1142 15.7958C66.1142 14.97 66.8508 14.5682 67.9669 14.3673L68.7257 14.2334C69.373 14.0994 69.7302 13.9878 69.9534 13.787V14.8137C69.9534 16.1975 68.9489 17.135 67.6321 17.135Z" fill="white"/>
<path d="M74.5884 3.4082V19.0325H77.8248V3.4082H74.5884Z" fill="white"/>
<path d="M79.6973 3.4082V19.0325H82.9337V3.4082H79.6973Z" fill="white"/>
<path d="M89.9983 19.434C93.0784 19.434 95.0655 17.693 95.2887 15.4164H92.0298C91.8731 16.4207 91.0249 16.9788 89.9983 16.9788C88.6144 16.9788 87.6101 15.8628 87.5877 14.3227H95.3552V13.6977C95.3552 10.0818 93.3691 7.71582 89.9314 7.71582C86.6279 7.71582 84.3066 10.0371 84.3066 13.5414C84.3066 17.3359 86.6949 19.434 89.9983 19.434ZM87.5654 12.2023C87.6993 10.9523 88.6144 10.0371 89.909 10.0371C91.1588 10.0371 92.0298 10.9076 92.0517 12.2023H87.5654Z" fill="white"/>
<path d="M102.205 19.2556C102.919 19.2556 103.612 19.144 103.924 19.0548V16.5994C103.678 16.6441 103.388 16.6664 103.142 16.6664C101.96 16.6664 101.535 15.9969 101.535 14.9031V10.6176H104.169V8.09541H101.535V4.21167H98.3211V8.09541H95.9551V10.6176H98.3211V15.3496C98.3211 17.9387 99.6157 19.2556 102.205 19.2556Z" fill="white"/>
<path d="M113.13 19.4342C117.55 19.4342 120.228 16.845 120.562 13.1174H117.058C116.791 15.1487 115.362 16.5325 113.264 16.5325C110.787 16.5325 109.046 14.5237 109.046 11.131C109.046 7.80522 110.853 5.90803 113.331 5.90803C115.451 5.90803 116.657 7.20255 116.902 9.09984H120.496C120.139 5.21607 117.282 3.00635 113.353 3.00635C108.867 3.00635 105.43 6.04195 105.43 11.131C105.43 16.3985 108.443 19.4342 113.13 19.4342Z" fill="white"/>
<path d="M127.579 19.434C130.95 19.434 133.338 17.3136 133.338 13.6084C133.338 9.97015 130.95 7.71582 127.579 7.71582C124.232 7.71582 121.843 9.97015 121.843 13.6084C121.843 17.3136 124.209 19.434 127.579 19.434ZM127.579 16.9341C126.084 16.9341 125.123 15.7066 125.123 13.6084C125.123 11.4657 126.128 10.2603 127.579 10.2603C129.052 10.2603 130.057 11.4657 130.057 13.6084C130.057 15.7066 129.075 16.9341 127.579 16.9341Z" fill="white"/>
<path d="M137.85 19.0323V12.6264C137.85 11.2648 138.698 10.2603 139.903 10.2603C141.042 10.2603 141.711 11.1308 141.711 12.5817V19.0323H144.947V12.113C144.947 9.47918 143.564 7.71582 141.086 7.71582C139.367 7.71582 138.319 8.5417 137.761 9.52382C137.828 9.12205 137.85 8.80955 137.85 8.51938V8.09528H134.613V19.0323H137.85Z" fill="white"/>
<path d="M150.12 19.0323V12.6264C150.12 11.2648 150.969 10.2603 152.174 10.2603C153.312 10.2603 153.981 11.1308 153.981 12.5817V19.0323H157.218V12.113C157.218 9.47918 155.835 7.71582 153.356 7.71582C151.638 7.71582 150.589 8.5417 150.031 9.52382C150.098 9.12205 150.12 8.80955 150.12 8.51938V8.09528H146.884V19.0323H150.12Z" fill="white"/>
<path d="M164.182 19.434C167.262 19.434 169.248 17.693 169.471 15.4164H166.213C166.057 16.4207 165.208 16.9788 164.182 16.9788C162.798 16.9788 161.794 15.8628 161.771 14.3227H169.539V13.6977C169.539 10.0818 167.552 7.71582 164.115 7.71582C160.812 7.71582 158.49 10.0371 158.49 13.5414C158.49 17.3359 160.878 19.434 164.182 19.434ZM161.749 12.2023C161.883 10.9523 162.798 10.0371 164.092 10.0371C165.342 10.0371 166.213 10.9076 166.235 12.2023H161.749Z" fill="white"/>
<path d="M176.488 19.434C179.88 19.434 181.733 17.5814 182.091 14.7021H178.854C178.742 15.9075 178.05 16.9341 176.6 16.9341C175.126 16.9341 174.122 15.5726 174.122 13.5637C174.122 11.3764 175.283 10.2603 176.666 10.2603C178.028 10.2603 178.698 11.2425 178.787 12.3808H182.023C181.778 9.72472 179.97 7.71582 176.644 7.71582C173.408 7.71582 170.841 9.85855 170.841 13.5637C170.841 17.2243 173.006 19.434 176.488 19.434Z" fill="white"/>
<path d="M189.091 19.2556C189.805 19.2556 190.498 19.144 190.81 19.0548V16.5994C190.564 16.6441 190.275 16.6664 190.029 16.6664C188.846 16.6664 188.422 15.9969 188.422 14.9031V10.6176H191.055V8.09541H188.422V4.21167H185.207V8.09541H182.841V10.6176H185.207V15.3496C185.207 17.9387 186.502 19.2556 189.091 19.2556Z" fill="white"/>
</svg>
